<svg xmlns="http://www.w3.org/2000/svg" viewBox="0 0 250 250" version="1.1">
    <rect fill="#000" x="0" y="0" width="250" height="250"/>
    <g>
        <rect fill="#fefefe" x="122.159" y="217.866" width="5.512" height="5.985"/>
        <rect fill="#fefefe" x="122.159" y="206.107" width="5.512" height="5.67" style="fill:#fefefe;fill-rule:nonzero;"/>
        <path fill="#fefefe" d="M187.028,197.871l20.368,0c0,0 8.259,-0.426 8.329,7.903c0.071,8.33 0,17.289 0,17.289c0,0 1.19,9.287 -10.289,9.262c-11.479,-0.023 -16.728,0 -16.728,0c-0,0 -10.289,1.027 -10.221,-8.493c0.071,-9.518 0,-18.688 0,-18.688c0,-0 0.63,-3.568 2.171,-4.899c1.54,-1.33 2.8,-1.96 3.43,-2.031c0.781,-0.27 1.399,-0.347 1.399,-0.347l1.541,0.004Zm-0.981,27.782l22.539,0l-0,-21.418l-22.539,-0l-0,21.418Z"/>
        <path fill="#fefefe" d="M171.768,204.794l-31.025,0l-0,20.684l23.623,-0l-0.053,-7.297l-11.601,-0.053c-0,0 -3.727,-0.63 -5.197,-3.359c-0.998,-2.52 -1.733,-2.468 0.42,-2.468c2.152,0 23.833,0.158 23.833,0.158l-0,12.651c-0,0 0.157,7.14 -7.717,7.192c-7.874,0.053 -21.996,0 -21.996,0l-2.415,0.023c0,0 -5.039,-0.862 -6.247,-5.745l0,-21.786c0,0 0.42,-6.772 7.245,-6.877c6.824,-0.105 24.463,0 24.463,0c-0,0 3.36,0.683 4.83,2.468c1.049,1.89 1.839,2.834 1.837,3.412l-0,0.997"/>
        <path fill="#fefefe" d="M85.254,232.302l23.028,0c-0,0 7.769,-0.559 7.84,-7.769c0.262,-9.082 -0.053,-13.649 -11.83,-13.229l-17.988,-0l-0,-6.229l29.258,-0c0,-0 -0.42,-7.176 -8.05,-7.158c-7.63,0.018 -22.258,0 -22.258,0c-0,0 -7.489,0.228 -7.489,7.158l0,6.929c0,0 -0.771,6.79 10.358,6.859c11.129,0.071 19.67,-0.069 19.67,-0.069l-0,6.02l-30.039,-0.14c-0,0 0.57,4.479 3.51,6.09c1.121,0.699 3.36,1.538 3.36,1.538"/>
        <path fill="#fefefe" d="M71.185,224.428l-28.033,0l-0,-19.109l28.033,0c-0,0 -0.21,-5.512 -5.512,-7.139c-1.103,-0.263 -3.255,-0.263 -4.62,-0.263l-20,0c0,0 -6.929,0.578 -7.034,7.612c-0.105,7.035 -0,18.899 -0,18.899c-0,0 -0.788,7.874 11.076,7.874l18.269,0c0,0 5.355,-0.21 7.56,-5.407c0.419,-1.417 0.262,-2.467 0.262,-2.467"/>
    </g>
    <g>
        <rect fill="#fff" x="33.737" y="15.038" width="182.687" height="170.995"/>
        <path fill="#1d2c49" d="M40.842,21.477l81.894,0c0,0 -4.567,3.308 -5.564,7.507c-0.998,4.2 -0.788,7.192 -0.053,9.187c0,0 0,0.998 -0.577,1.732c-0.578,0.735 -0.525,-1.522 -3.202,-1.364c-2.678,0.157 -6.405,-0.683 -11.392,8.294c-0,0 -1.628,4.147 -1.89,7.717c-0.263,3.57 -0.578,8.452 -0.105,9.712c0.472,1.26 -5.092,0.945 -5.092,0.945c-0,-0 -1.418,0.367 -1.47,0.945c-0.053,0.577 -0,3.622 0.052,5.354c0.053,1.733 -0.367,2.73 -0.525,4.357c-0.157,1.628 -1.207,3.098 -1.049,4.935c0.157,1.837 3.044,1.942 4.724,2.1c1.68,0.157 1.523,0.525 0.578,0.787c-0.945,0.263 -3.728,0.315 -3.623,3.675c0.105,3.36 1.155,11.339 1.418,13.492c0.262,2.152 -1.628,0.21 -1.418,0.84c0.21,0.63 -0.735,-0.368 -1.312,2.047c-0.577,2.415 0.157,1.995 0.42,2.31c0.262,0.315 0.577,0.315 0.577,0.315l-0.787,1.102l-0.262,1.26l0.419,0.893l0.42,0.367c0,0 -1.049,1.155 0.053,2.415c1.102,1.26 0.577,0.682 0.472,1.89c-0.105,1.207 -2.309,10.184 -1.732,14.121c0.577,3.937 -1.365,5.145 -2.205,6.877c-0.84,1.733 -5.722,9.345 -5.512,11.129c0.21,1.785 -0.472,3.675 -0.997,4.673c-0.525,0.997 -2.835,3.359 -2.73,5.827c0.105,2.467 0.262,2.835 1.417,3.884c0,0 -0.997,3.413 -1.365,4.83c-0.367,1.418 -1.785,6.982 -2.047,7.98c-0.262,0.997 -0.735,2.887 -0.577,3.884l-0.158,0.42l-36.8,0"/>
        <path fill="#1d2c49" d="M90.346,177.916l43.835,0c-0,0 0.367,-5.197 1.574,-7.559c1.208,-2.363 0.945,-5.25 0.84,-7.14c-0.105,-1.89 0.158,-5.197 -1.365,-6.037l-0.262,-2.31c-0,0 -1.522,-3.464 -1.102,-4.357c-0.105,-0.997 -0.42,-9.449 -0.42,-9.449c-0,-0 0.472,-1.575 1.365,-2.205c0.262,-0.787 0.472,-5.355 -0.473,-6.3c-0.84,-0.944 -1.47,-0.892 -3.36,-1.102c-1.89,-0.21 -0.84,1.942 -7.349,-8.137c-1.103,-1.89 -2.258,-3.675 -2.783,-4.357c-0.524,-0.683 -1.312,-0.683 -2.519,-0.788c-1.208,-0.105 -1.365,-0.157 -2.415,-2.099l-1.05,-1.943c-0,0 -0.269,-0.525 -1.342,2.783c-1.073,3.307 -2.175,-0 -4.275,8.241c-1.313,2.783 -1.418,3.098 -1.628,6.825c-0.525,1.89 -1.627,2.362 -2.782,3.097c-1.155,0.735 -1.312,2.783 -1.732,3.308c-0.42,0.525 -2.1,0.525 -2.993,3.674c-0.892,3.15 -1.049,1.313 -0.157,4.252c-0,0 -1.312,5.04 -2.1,6.195c-0.787,1.155 -2.047,4.357 -2.415,5.827c-0.367,1.47 -1.995,3.57 -3.202,3.78c-1.207,0.21 -2.572,4.62 -2.73,5.827c-0.157,1.207 -0.63,7.664 0,8.609c0.368,0.945 0.84,1.365 0.84,1.365"/>
        <path fill="#fea400" d="M134.391,21.477l75.104,0l-0,156.439l-49.618,0c0,0 -0.419,-0.315 -0.787,-1.312c-0.367,-0.998 -4.751,-2.73 -6.063,-3.071c-1.313,-0.341 -3.911,-4.62 -4.804,-5.539c-0.577,-0.839 -0.63,-1.496 -0.63,-1.496l-0.498,-8.504c-0,-0 -0.079,-0.63 0.315,-1.076c0.393,-0.446 1.102,-1.575 1.023,-2.494c-0.078,-0.919 -0.42,-4.646 -0.63,-5.118c-0.21,-0.473 -0.131,-1.26 -0.157,-1.68c-0.026,-0.42 0.499,-1.654 0.63,-2.1c0.131,-0.446 1.338,-9.738 1.233,-10.342c-0.105,-0.603 -0.052,-5.354 -0.839,-5.853c-0.788,-0.499 -0.158,-2.704 -0.42,-3.071c-0.263,-0.368 -1.208,0.131 -1.549,-1.103c-0.341,-1.233 -3.937,-9.685 -3.937,-9.685l-2.389,-4.935c0,0 -6.457,-9.265 -7.218,-9.974c-0.761,-0.709 -0.945,-5.145 -0.263,-6.273c0.683,-1.129 1.024,0.183 1.103,0.183c0.079,0 1.837,1.129 2.598,0.342c0.762,-0.788 2.756,-3.885 2.783,-5.066c0.026,-1.181 0.577,-12.888 0.21,-13.439c-0.132,-0.552 -0.447,-2.52 -2.546,-3.255c-2.1,-0.735 0.052,-1.522 -0,-2.625c-0.053,-1.102 -0.368,-1.89 0.393,-1.365c0.762,0.525 9.371,5.302 10.5,5.46c1.128,0.157 1.338,0.184 2.126,0.184c0.787,-0 1.706,0.971 2.047,0.839c0.368,0 1.68,0.053 4.515,-2.309c2.835,-2.363 3.307,-2.1 3.989,-4.515c0.683,-2.415 0.473,-5.853 1.969,-6.221c1.496,-0.367 2.782,0.971 1.234,-3.963c-0.735,-4.751 -0.551,-4.961 0.131,-5.014c0.604,-0.315 0.42,-0.236 1.785,-1.758c1.365,-1.523 1.391,-1.601 1.47,-1.759c0.078,-0.157 0.078,-0.682 0.078,-0.682c0,-0 0.42,-0.263 0.552,-0.368c0.131,-0.105 0.787,-0.315 0.918,-0.315c0.132,0 -0.21,-0.367 0.42,-0.394c2.363,0 14.148,0.079 14.148,0.079l0,-1.339c0,0 0.026,-0.446 0.315,-0.419c0.289,0.026 0.525,0.052 0.63,0.183c0.105,0.131 2.94,0.079 2.94,0.079c-0,0 0.499,-0.446 1.391,-0.446c0.892,-0 8.767,0.026 8.767,0.026c-0,0 0.184,0.735 0.577,0.735c0.394,-0 1.05,0.105 1.024,-0.315c1.312,0 4.725,-0.026 4.725,-0.026c-0,-0 0.183,-0 0.157,-1.129c0.026,-0.971 0.053,-0.814 -3.281,-0.814c-1.207,0 -1.444,-0.026 -1.444,-0.026c0,0 0.184,-0.42 -0.577,-0.42c-0.761,0 -1.129,0.394 -1.129,0.63c0,0.236 -0.341,0.21 -0.341,0.21l-8.924,-0.079c-0,0 -0.446,-0.052 -0.289,-1.365c0.158,-1.312 -0.367,-1.837 -0.787,-1.548c-0.42,0.289 -0.735,0.42 -0.788,0.499c-0.052,0.078 -0.472,-0.42 -0.525,-0.867c-0.052,-0.446 -0.079,-4.698 -0.079,-4.777c0,-0.079 -0.236,-0.709 -0.525,-0.525c-0.288,0.184 -0.787,-0.079 -0.866,0.236c-0.078,0.315 -0.026,6.143 -0.026,6.143c0,-0 -0.472,0.367 -0.735,-0.053c-0.262,-0.42 -0.525,-0.184 -0.472,-0.682c0.052,-0.499 -0.315,-0.867 -0.315,-0.867l-33.913,0c0,0 -0.105,-1.627 -0.367,-1.522c-0.263,0.105 -2.048,0.157 -2.048,0.157l-0.052,-2.677c-0,0 -0.158,-0.787 -0.735,-0.315c-0.525,0.053 -0.473,2.363 -0.525,2.625c-0.053,0.262 -0.473,0.262 -0.473,0.262l0,0.945l-1.89,0.21c0,0 -2.572,0.473 -2.939,0.735c-0.368,0.263 -1.733,0.368 -1.733,0.368l-0.63,0.105c0,-0 -0.42,-1.155 -0.42,-1.313c0,-0.157 -0.052,-1.259 -0.052,-1.259c-0,-0 0.105,0.419 -0.105,-0.315c-0.21,-0.735 -0.105,-1.365 -0.105,-1.365c-0,-0 3.307,-1.208 3.885,-2.258c0.577,-1.05 0.577,-5.039 0.052,-6.667c-0.525,-1.627 -0.84,-2.1 -0.84,-2.52c0,-0.42 -0.157,-1.784 -0.157,-1.784c-0,-0 -2.048,-1.05 -3.045,-1.365c-0.998,-0.315 -2.467,-1.418 -2.467,-1.418"/>
    </g>
</svg>
